<svg width="207" height="207" viewBox="0 0 207 207" fill="none" xmlns="http://www.w3.org/2000/svg">
<rect x="3" y="36" width="201" height="137" rx="18" fill="#FFFCFC" stroke="#145CFC" stroke-width="6"/>
<path d="M164.023 84.6396C154.765 60.22 131.174 42.8555 103.54 42.8555C75.9067 42.8555 52.316 60.1998 43.0576 84.6193C25.7335 89.1677 12.9375 104.935 12.9375 123.715C12.9375 146.052 31.0298 164.145 53.347 164.145H153.653C175.97 164.145 194.062 146.052 194.062 123.715C194.062 104.976 181.307 89.2081 164.023 84.6396ZM171.361 141.443C169.041 143.777 166.282 145.627 163.242 146.886C160.203 148.146 156.943 148.79 153.653 148.781H53.347C46.6559 148.781 40.369 146.174 35.6388 141.443C33.3051 139.12 31.455 136.356 30.1955 133.313C28.936 130.271 28.292 127.008 28.3008 123.715C28.3008 118.055 30.1403 112.738 33.5971 108.291C36.9822 103.983 41.6692 100.884 46.9591 99.457L54.6205 97.4558L57.4304 90.0571C59.1688 85.4481 61.5946 81.1424 64.6471 77.2409C67.6605 73.374 71.2301 69.9747 75.2397 67.1537C83.548 61.3116 93.3319 58.2188 103.54 58.2188C113.749 58.2188 123.533 61.3116 131.841 67.1537C135.864 69.9838 139.422 73.3799 142.434 77.2409C145.486 81.1424 147.912 85.4684 149.65 90.0571L152.44 97.4355L160.081 99.457C171.058 102.388 178.699 112.354 178.699 123.715C178.699 130.406 176.092 136.713 171.361 141.443Z" fill="#145CFC"/>
<circle cx="103.5" cy="111.5" r="19" stroke="#145CFC" stroke-width="7"/>
<rect x="30.5" y="77.5" width="10" height="12" stroke="#145CFC" stroke-width="7"/>
</svg>
